<svg width="70" height="70" viewBox="0 0 70 70" fill="none" xmlns="http://www.w3.org/2000/svg">
<path fill-rule="evenodd" clip-rule="evenodd" d="M39.9848 19.9391C40.4515 19.5514 41.149 19.421 41.7834 19.8008C42.4142 20.1773 42.8991 20.7808 43.2456 21.4697H52.4122C57.2652 21.4697 61.1991 25.4035 61.1991 30.2561V39.8515C61.1991 44.7045 57.2653 48.6385 52.4122 48.6385H43.6729C43.3199 49.4043 42.8072 50.0756 42.1263 50.4825C41.4913 50.8617 40.7938 50.7314 40.3277 50.3442C39.9074 49.9949 39.6847 49.4641 39.6847 48.9369V48.6384H17.4583C13.079 48.6384 9.52859 45.088 9.52859 40.7082V29.3995C9.52859 25.0202 13.079 21.4698 17.4583 21.4698H39.3429V21.3464C39.3429 20.8193 39.5645 20.2884 39.9848 19.9391ZM41.471 22.7718C41.3669 23.2578 40.9354 23.622 40.4184 23.622H17.4579C14.2674 23.622 11.6804 26.209 11.6804 29.3995V40.7081C11.6804 43.8992 14.2674 46.4856 17.4579 46.4856H40.7616C41.3218 46.4856 41.7822 46.9139 41.8329 47.4608C41.8585 47.3914 41.8836 47.3182 41.9071 47.2418C42.047 46.7921 42.4636 46.4856 42.9346 46.4856H52.4125C56.0767 46.4856 59.0471 43.5157 59.0471 39.8516V30.2561C59.0471 26.5925 56.0766 23.6221 52.4125 23.6221H42.5341C42.0646 23.6221 41.6497 23.3182 41.5081 22.8718C41.4959 22.8376 41.4833 22.8043 41.471 22.7718ZM47.0045 24.5107L47.5711 25.5735C49.0621 28.3692 49.86 31.5586 49.89 34.81C49.9204 38.0614 49.1813 41.2689 47.7425 44.0984L47.1983 45.1692L45.382 43.9788L45.8189 43.1195C47.0958 40.6084 47.759 37.7452 47.7318 34.8304C47.7051 31.9155 46.989 29.0689 45.6671 26.5899L45.2148 25.7413L47.0045 24.5107ZM15.7765 24.5919L17.6158 25.7225L17.0721 26.6346C15.5965 29.1073 14.8019 31.9384 14.772 34.8313C14.7426 37.7243 15.4785 40.5713 16.9023 43.0751L17.4278 43.999L15.565 45.0901L15.0256 44.1427C13.4122 41.3057 12.5796 38.0822 12.6132 34.8089C12.6474 31.5357 13.5462 28.3307 15.2179 25.5285L15.7765 24.5919ZM18.1392 30.6957C18.1392 27.7237 20.5483 25.314 23.5203 25.314H37.8703C40.8423 25.314 43.2514 27.7237 43.2514 30.6957V39.3058C43.2514 42.2778 40.8423 44.6869 37.8703 44.6869H23.5203C20.5483 44.6869 18.1392 42.2778 18.1392 39.3058V30.6957ZM23.5203 27.4668C21.737 27.4668 20.2914 28.9125 20.2914 30.6957V39.3058C20.2914 41.0885 21.737 42.5342 23.5203 42.5342H37.8703C39.6529 42.5342 41.0986 41.0885 41.0986 39.3058V30.6957C41.0986 28.9125 39.6529 27.4668 37.8703 27.4668H23.5203ZM53.3004 25.6296C53.7207 25.2093 54.4021 25.2093 54.8224 25.6296C56.0839 26.891 57.0847 28.3885 57.7672 30.0366C57.9947 30.5856 57.7341 31.2152 57.1851 31.4427C56.6356 31.6702 56.0059 31.4091 55.779 30.8601C55.2043 29.473 54.3621 28.2128 53.3004 27.1516C52.8801 26.7313 52.8801 26.0499 53.3004 25.6296ZM57.1851 39.0275C57.7341 39.255 57.9947 39.8846 57.7672 40.4336C57.0847 42.0817 56.0839 43.5792 54.8224 44.8406C54.4021 45.2609 53.7207 45.2609 53.3003 44.8406C52.88 44.4203 52.88 43.7388 53.3003 43.3185C54.362 42.2568 55.2043 40.9965 55.7789 39.6095C56.0059 39.0605 56.6356 38.7999 57.1851 39.0275Z" fill="white"/>
</svg>
